<?xml version="1.0" encoding="UTF-8"?>
<svg id="Layer_1" data-name="Layer 1" xmlns="http://www.w3.org/2000/svg" viewBox="0 0 468.39 447.28">
  <defs>
    <style>
      .cls-1 {
        fill: #fff;
      }
    </style>
  </defs>
  <path class="cls-1" d="M202.47,353.54c-1.11,.54-2.82,.03-3.4,.35-.27,.15-.38,.44-.33,.85,0,.07-.06,.13-.13,.13-.05,0-.1-.03-.12-.08-.03-.1-.07-.2-.1-.3-.03-.09-.13-.13-.22-.1-.02,0-.04,.02-.05,.03-.78,.64-1.54,1.3-2.29,1.99-1.88,1.72-4.83,2.48-6.42,3.57-.81,.55-1.53,1.2-2.18,1.94-2.46,2.83-12.9,12.73-16.59,12.66-.32,0-.59,.11-.82,.34-5.99,6.25-12.27,12.2-18.83,17.86-.95,.81-1.68,1.95-2.21,3.4-.1,.3-.02,.63,.22,.84l2.94,2.6c.25,.22,.28,.46,.07,.72l-1.31,1.67-12.78-11.71c-.36-.34-.38-.89-.06-1.24,0,0,0,0,0,0,3.86-4.04,18.72-18.3,18.68-23.01-.28-33-.39-66-.32-99,.01-10.12-2.06-19.24-11.02-25.63,.25-1.15-.88-2.19-3.38-3.13-.37-.13-.55-.4-.55-.8,.35-34.95,.06-69.89-.89-104.83-.28-10.62,.45-20.93,1.02-31.43,.43-7.87,.3-19.16-.41-33.85-.09-1.87-1.33-4.25,.23-6.35,.21-.28,.3-.59,.28-.94-.02-.46-.18-.64-.49-.53,14.15-16.1,26.7-29.21,37.66-39.32,28.62-26.39,79.44-27.41,108.54-.4,13.35,12.39,26.48,24.99,39.41,37.82,.24,.23,.24,.47,0,.7-14.64,14.04-28.42,29.03-44.16,41.86-.29,.23-.5,.18-.63-.17-6.89-18.7-20.27-29.45-40.12-32.24-22.51-3.18-42.67,12.8-47.06,34.64-.72,3.59-1.08,10.23-1.07,19.92,.07,67.55,.04,135.11-.09,202.68-.02,10.63,2.97,20.13,8.97,28.5Z"/>
  <path class="cls-1" d="M141.02,59.55c.31-.11,.47,.07,.49,.53,.02,.35-.07,.66-.28,.94-1.56,2.1-.32,4.48-.23,6.35,.71,14.69,.84,25.98,.41,33.85-.57,10.5-1.3,20.81-1.02,31.43,.95,34.94,1.24,69.88,.89,104.83,0,.4,.18,.67,.55,.8,2.5,.94,3.63,1.98,3.38,3.13l-5.11-2.55c-.3-.15-.45-.4-.46-.73-.69-67.55-.9-110.83-.64-129.84,.27-19.76,.25-34.93-.06-45.51-.03-.89,.67-1.97,2.08-3.23Z"/>
  <path class="cls-1" d="M68.08,234.54c-1.01,8.13-.57,15.23,1.31,21.3,6.81,22.04,26.22,39.43,50.59,40.38,.36,.01,.54,.2,.04,.57v70.68c.43,.25,.3,.38,.05-.04h-10.99c-.35,.33-.68,.2-.93-.04-24.06-22.88-48.27-45.59-72.63-68.12-12.08-11.16-24.87-23.05-30.76-40.85-9-27.19-5.25-52.21,11.26-75.08,3.6-4.99,9.29-11.23,17.06-18.72,22.54-21.71,44.73-43.56,66.57-65.55,.51-.51,1.33-.51,1.84,0,.24,.24,.38,.56,.38,.9,.32,32.23,.38,64.42,.18,96.56-.06,9.46,3.03,17.84,9.28,25.13,2.17,2.54,5.56,4.59,8.36,6.92,.27,.23,.41,.52,.33,.88v38.74c.59,.32,.43,.47,.11,.44-23.79-2.12-41.86-11.38-51.82-34.13-.12-.27-.2-.26-.23,.03Z"/>
  <path class="cls-1" d="M468.06,229.75c-1.05-.1-1.62-.68-1.59-1.8,.28-14.51-8.62-35.89-18.88-46.22-3.44-3.46-11.64-11.55-24.6-24.27-2.14-2.1-4.56-5.08-7.07-7.4-6.47-5.95-12.29-13.23-19.18-18.55-3.71-2.86-7.19-5.97-10.99-8.01-7.44-4.01-15.36-6.31-23.77-6.9-10.27-.73-21.27-1.26-32.36-1.17-26.05,.21-52.11,.34-78.16,.4-3.93,.01-9.74-.7-14.72-.19-.55,.06-.96,.55-.9,1.11,0,.02,0,.05,0,.07,.22,1.21,.32,2.47,.31,3.79-.08,8.34,.11,16.67,.56,25,.17,3.1,.06,6.19-.31,9.28-.17,1.39,.52,2.04,2.06,1.97,8.61-.39,18.39-.2,29.34,.57l-32.28,.49c-.34,0-.51-.16-.51-.5l-.37-42.82c0-.31,.15-.47,.46-.47,41.01,0,82.12-.93,123.09,.38,18.94,.61,31.4,7.65,44.46,20.7,12.39,12.39,24.92,24.64,37.58,36.75,6.57,6.29,11.11,11.16,13.61,14.61,9,12.43,13.74,26.82,14.21,43.18Z"/>
  <path class="cls-1" d="M468.33,230.41c.89,25.86-9.14,46.65-26.88,64.57-21.8,22.04-43.82,43.86-66.05,65.46-1.93,1.88-3.52,3.88-4.76,6.01-.15,.25-.48,.32-.73,.17-.15-.09-.25-.26-.25-.44,.09-31.11,.33-62.07,.72-92.9,.24-18.74-12.76-34.54-30.72-38.89-2.39-.58-5.15-.36-7.67-.38-9.91-.06-13.37,4.1-19.67,10.33-25.58,25.28-46.42,45.11-76.69,75.85-.39,.4-.57,.32-.56-.24l.22-7.43c.3,.03,.56-.03,.77-.17,.28-.18,.44-.44,.47-.77,.74-8.18,.11-17.47,.29-24.4,.27-10.2,.28-20.4,.04-30.6-.47-19.74,.15-39.6,.2-59.06,0-1.39,.71-2.09,2.1-2.09l97.17,.09c.37,0,.53-.18,.49-.54-.03-.25-.31-.48-.84-.69,7.98-.18,13.64-.11,16.99,.21,31.52,3.04,47.76,27.37,50.22,56.91,.12,1.37-.43,2.88-.14,4.39,.03,.1,.12,.15,.22,.13,.07-.02,.12-.07,.13-.14,.43-3.28,1.02-6.35,1.79-9.21,4.71-17.58,3.79-38.3-6.25-53.84-19.7-30.5-46.11-34.26-79.7-34.3-17.13-.03-34.18-.14-51.16-.35-10.95-.77-20.73-.96-29.34-.57-1.54,.07-2.23-.58-2.06-1.97,.37-3.09,.48-6.18,.31-9.28-.45-8.33-.64-16.66-.56-25,.01-1.32-.09-2.58-.31-3.79-.1-.55,.27-1.07,.82-1.17,.02,0,.05,0,.07,0,4.98-.51,10.79,.2,14.72,.19,26.05-.06,52.11-.19,78.16-.4,11.09-.09,22.09,.44,32.36,1.17,8.41,.59,16.33,2.89,23.77,6.9,3.8,2.04,7.28,5.15,10.99,8.01,6.89,5.32,12.71,12.6,19.18,18.55,2.51,2.32,4.93,5.3,7.07,7.4,12.96,12.72,21.16,20.81,24.6,24.27,10.26,10.33,19.16,31.71,18.88,46.22-.03,1.12,.54,1.7,1.59,1.8Z"/>
  <path class="cls-1" d="M335.98,194.43c.53-.41,.81-.18,.84,.07,.04,.36-.12,.54-.49,.93h-97.17c-1.39-.48-2.09,.22-2.1,1.61-.05,19.46-.67,39.32-.2,59.06,.24,10.2,.23,20.4-.04,30.6-.18,6.93,.45,16.22-.29,24.4-.03,.33-.19,.59-.47,.77-.21,.14-.47,.2-1.04,.17v-116.55c.22-1.09,.76-1.64,1.85-1.06h99.11Z"/>
  <path class="cls-1" d="M337.66,248.01c-.57,.59-1.2,.42-1.87-.5-.18-.25-.5-.35-.79-.27-4.54,1.27-12.54,10.17-17.29,14.96-.24,.24-.53,.36-.87,.36-.68,0-.96-.15-.85-.47,5.52-5.95,11.67-11.62,18.45-16.99,.77-.61,1.64-.45,2.61,.49,.27,.27,.48,1.07,.61,2.42Z"/>
  <path class="cls-1" d="M337.66,248.01c.24,43.67,.12,87.34-.37,131.02-.08,6.69-4.09,11.49-8.56,16-7.93,8.03-16.01,15.91-24.22,23.66-6.09,5.74-11.2,10-15.35,12.77-19.66,13.15-41.8,18.1-66.43,14.86-16.73-2.2-32.87-7.95-46.21-20.31-8.61-7.97-17.21-15.97-25.82-24l1.31-1.67c.21-.26,.18-.5-.07-.72l-2.94-2.6c-.24-.21-.32-.54-.22-.84,.53-1.45,1.26-2.59,2.21-3.4,6.56-5.66,12.84-11.61,18.83-17.86,.23-.23,.5-.35,.82-.34,3.69,.07,14.13-9.83,16.59-12.66,.65-.74,1.37-1.39,2.18-1.94,1.59-1.09,4.54-1.85,6.42-3.57,.75-.69,1.51-1.35,2.29-1.99,.07-.06,.18-.05,.24,.02,.01,.02,.02,.03,.03,.05,.03,.1,.07,.2,.1,.3,.03,.07,.1,.1,.17,.07,.05-.02,.08-.07,.08-.12-.05-.41,.06-.7,.33-.85,.58-.32,2.29,.19,3.4-.35,13.24,16.79,31.11,23.61,51.29,14.53,27.28-12.26,27.32-43.1,25.61-68.32-.02-.32,.1-.64,.32-.87l36.3-36.79c-.11,.32,.17,.48,.85,.47,.34,0,.63-.12,.87-.36,4.75-4.79,12.75-13.69,17.29-14.96,.29-.08,.61,.02,.79,.27,.67,.92,1.3,1.09,1.87,.5Z"/>
</svg>